<mxfile host="app.diagrams.net" modified="2023-09-22T12:33:11.501Z" agent="Mozilla/5.0 (Windows NT 10.0; Win64; x64) AppleWebKit/537.36 (KHTML, like Gecko) Chrome/115.0.0.0 Safari/537.36 Edg/115.0.1901.203" etag="qGKyZgpd8fSx1foIlFhk" version="21.7.2" type="device">
  <diagram name="Página-1" id="M5GFfaLVcnrqiDl_ZwPC">
    <mxGraphModel dx="832" dy="473" grid="1" gridSize="10" guides="1" tooltips="1" connect="1" arrows="1" fold="1" page="1" pageScale="1" pageWidth="827" pageHeight="1169" math="0" shadow="0">
      <root>
        <mxCell id="0" />
        <mxCell id="1" parent="0" />
        <mxCell id="g55L8w_lkAx7v0pYMvu_-74" value="Productos" style="rounded=0;whiteSpace=wrap;html=1;fillColor=#60a917;fontColor=#ffffff;strokeColor=#2D7600;" vertex="1" parent="1">
          <mxGeometry x="80" y="120" width="120" height="60" as="geometry" />
        </mxCell>
        <mxCell id="g55L8w_lkAx7v0pYMvu_-75" value="Categoría_Productos" style="rounded=0;whiteSpace=wrap;html=1;fillColor=#e3c800;fontColor=#000000;strokeColor=#B09500;" vertex="1" parent="1">
          <mxGeometry x="400" y="120" width="120" height="60" as="geometry" />
        </mxCell>
        <mxCell id="g55L8w_lkAx7v0pYMvu_-76" value="Proveedores" style="rounded=0;whiteSpace=wrap;html=1;fillColor=#e51400;strokeColor=#B20000;fontColor=#ffffff;" vertex="1" parent="1">
          <mxGeometry x="600" y="340" width="120" height="60" as="geometry" />
        </mxCell>
        <mxCell id="g55L8w_lkAx7v0pYMvu_-77" value="Usuarios" style="rounded=0;whiteSpace=wrap;html=1;fillColor=#76608a;strokeColor=#432D57;fontColor=#ffffff;" vertex="1" parent="1">
          <mxGeometry x="80" y="510" width="120" height="60" as="geometry" />
        </mxCell>
        <mxCell id="g55L8w_lkAx7v0pYMvu_-78" value="Roles" style="rounded=0;whiteSpace=wrap;html=1;fillColor=#fa6800;strokeColor=#C73500;fontColor=#000000;" vertex="1" parent="1">
          <mxGeometry x="480" y="560" width="120" height="60" as="geometry" />
        </mxCell>
        <mxCell id="g55L8w_lkAx7v0pYMvu_-79" value="Id_producto" style="ellipse;whiteSpace=wrap;html=1;align=center;fontStyle=4;" vertex="1" parent="1">
          <mxGeometry x="10" y="200" width="100" height="40" as="geometry" />
        </mxCell>
        <mxCell id="g55L8w_lkAx7v0pYMvu_-80" value="nombre" style="ellipse;whiteSpace=wrap;html=1;align=center;" vertex="1" parent="1">
          <mxGeometry x="10" y="10" width="100" height="40" as="geometry" />
        </mxCell>
        <mxCell id="g55L8w_lkAx7v0pYMvu_-81" value="descripcion" style="ellipse;whiteSpace=wrap;html=1;align=center;" vertex="1" parent="1">
          <mxGeometry x="130" y="10" width="100" height="40" as="geometry" />
        </mxCell>
        <mxCell id="g55L8w_lkAx7v0pYMvu_-82" value="precio" style="ellipse;whiteSpace=wrap;html=1;align=center;" vertex="1" parent="1">
          <mxGeometry x="210" y="60" width="100" height="40" as="geometry" />
        </mxCell>
        <mxCell id="g55L8w_lkAx7v0pYMvu_-83" value="stock" style="ellipse;whiteSpace=wrap;html=1;align=center;" vertex="1" parent="1">
          <mxGeometry x="10" y="70" width="100" height="40" as="geometry" />
        </mxCell>
        <mxCell id="g55L8w_lkAx7v0pYMvu_-84" value="fecha_ingreso" style="ellipse;whiteSpace=wrap;html=1;align=center;" vertex="1" parent="1">
          <mxGeometry x="240" y="240" width="100" height="40" as="geometry" />
        </mxCell>
        <mxCell id="g55L8w_lkAx7v0pYMvu_-85" value="proveedor" style="ellipse;whiteSpace=wrap;html=1;align=center;" vertex="1" parent="1">
          <mxGeometry x="110" y="250" width="100" height="40" as="geometry" />
        </mxCell>
        <mxCell id="g55L8w_lkAx7v0pYMvu_-86" value="stock_minimo" style="ellipse;whiteSpace=wrap;html=1;align=center;" vertex="1" parent="1">
          <mxGeometry x="220" y="130" width="100" height="40" as="geometry" />
        </mxCell>
        <mxCell id="g55L8w_lkAx7v0pYMvu_-87" value="" style="endArrow=none;html=1;rounded=0;entryX=0.39;entryY=1.05;entryDx=0;entryDy=0;entryPerimeter=0;exitX=0.75;exitY=0;exitDx=0;exitDy=0;" edge="1" parent="1" source="g55L8w_lkAx7v0pYMvu_-74" target="g55L8w_lkAx7v0pYMvu_-81">
          <mxGeometry width="50" height="50" relative="1" as="geometry">
            <mxPoint x="380" y="250" as="sourcePoint" />
            <mxPoint x="430" y="200" as="targetPoint" />
          </mxGeometry>
        </mxCell>
        <mxCell id="g55L8w_lkAx7v0pYMvu_-88" value="" style="endArrow=none;html=1;rounded=0;entryX=0.05;entryY=0.825;entryDx=0;entryDy=0;entryPerimeter=0;exitX=1;exitY=0;exitDx=0;exitDy=0;" edge="1" parent="1" source="g55L8w_lkAx7v0pYMvu_-74" target="g55L8w_lkAx7v0pYMvu_-82">
          <mxGeometry width="50" height="50" relative="1" as="geometry">
            <mxPoint x="380" y="250" as="sourcePoint" />
            <mxPoint x="430" y="200" as="targetPoint" />
          </mxGeometry>
        </mxCell>
        <mxCell id="g55L8w_lkAx7v0pYMvu_-89" value="" style="endArrow=none;html=1;rounded=0;entryX=0;entryY=0.5;entryDx=0;entryDy=0;exitX=1;exitY=0.5;exitDx=0;exitDy=0;" edge="1" parent="1" source="g55L8w_lkAx7v0pYMvu_-74" target="g55L8w_lkAx7v0pYMvu_-86">
          <mxGeometry width="50" height="50" relative="1" as="geometry">
            <mxPoint x="380" y="250" as="sourcePoint" />
            <mxPoint x="430" y="200" as="targetPoint" />
          </mxGeometry>
        </mxCell>
        <mxCell id="g55L8w_lkAx7v0pYMvu_-90" value="" style="endArrow=none;html=1;rounded=0;entryX=0;entryY=0;entryDx=0;entryDy=0;exitX=1;exitY=1;exitDx=0;exitDy=0;" edge="1" parent="1" source="g55L8w_lkAx7v0pYMvu_-74" target="g55L8w_lkAx7v0pYMvu_-84">
          <mxGeometry width="50" height="50" relative="1" as="geometry">
            <mxPoint x="380" y="250" as="sourcePoint" />
            <mxPoint x="430" y="200" as="targetPoint" />
          </mxGeometry>
        </mxCell>
        <mxCell id="g55L8w_lkAx7v0pYMvu_-91" value="" style="endArrow=none;html=1;rounded=0;exitX=0.5;exitY=0;exitDx=0;exitDy=0;entryX=0.683;entryY=0.983;entryDx=0;entryDy=0;entryPerimeter=0;" edge="1" parent="1" source="g55L8w_lkAx7v0pYMvu_-85" target="g55L8w_lkAx7v0pYMvu_-74">
          <mxGeometry width="50" height="50" relative="1" as="geometry">
            <mxPoint x="380" y="250" as="sourcePoint" />
            <mxPoint x="160" y="190" as="targetPoint" />
          </mxGeometry>
        </mxCell>
        <mxCell id="g55L8w_lkAx7v0pYMvu_-92" value="" style="endArrow=none;html=1;rounded=0;entryX=0;entryY=1;entryDx=0;entryDy=0;" edge="1" parent="1" source="g55L8w_lkAx7v0pYMvu_-79" target="g55L8w_lkAx7v0pYMvu_-74">
          <mxGeometry width="50" height="50" relative="1" as="geometry">
            <mxPoint x="380" y="250" as="sourcePoint" />
            <mxPoint x="430" y="200" as="targetPoint" />
          </mxGeometry>
        </mxCell>
        <mxCell id="g55L8w_lkAx7v0pYMvu_-94" value="nombre" style="ellipse;whiteSpace=wrap;html=1;align=center;" vertex="1" parent="1">
          <mxGeometry x="550" y="150" width="100" height="40" as="geometry" />
        </mxCell>
        <mxCell id="g55L8w_lkAx7v0pYMvu_-95" value="idcategoria_prod" style="ellipse;whiteSpace=wrap;html=1;align=center;fontStyle=4;" vertex="1" parent="1">
          <mxGeometry x="550" y="90" width="100" height="40" as="geometry" />
        </mxCell>
        <mxCell id="g55L8w_lkAx7v0pYMvu_-96" value="descripcion" style="ellipse;whiteSpace=wrap;html=1;align=center;" vertex="1" parent="1">
          <mxGeometry x="420" y="40" width="100" height="40" as="geometry" />
        </mxCell>
        <mxCell id="g55L8w_lkAx7v0pYMvu_-97" value="direccion" style="ellipse;whiteSpace=wrap;html=1;align=center;" vertex="1" parent="1">
          <mxGeometry x="710" y="280" width="100" height="40" as="geometry" />
        </mxCell>
        <mxCell id="g55L8w_lkAx7v0pYMvu_-98" value="telefono" style="ellipse;whiteSpace=wrap;html=1;align=center;" vertex="1" parent="1">
          <mxGeometry x="680" y="430" width="100" height="40" as="geometry" />
        </mxCell>
        <mxCell id="g55L8w_lkAx7v0pYMvu_-99" value="mail" style="ellipse;whiteSpace=wrap;html=1;align=center;" vertex="1" parent="1">
          <mxGeometry x="540" y="430" width="100" height="40" as="geometry" />
        </mxCell>
        <mxCell id="g55L8w_lkAx7v0pYMvu_-100" value="descripcion" style="ellipse;whiteSpace=wrap;html=1;align=center;" vertex="1" parent="1">
          <mxGeometry x="460" y="350" width="100" height="40" as="geometry" />
        </mxCell>
        <mxCell id="g55L8w_lkAx7v0pYMvu_-102" value="id_proveedor" style="ellipse;whiteSpace=wrap;html=1;align=center;fontStyle=4;" vertex="1" parent="1">
          <mxGeometry x="570" y="270" width="100" height="40" as="geometry" />
        </mxCell>
        <mxCell id="g55L8w_lkAx7v0pYMvu_-103" value="" style="endArrow=none;html=1;rounded=0;entryX=0.92;entryY=0.95;entryDx=0;entryDy=0;entryPerimeter=0;exitX=0.575;exitY=-0.017;exitDx=0;exitDy=0;exitPerimeter=0;" edge="1" parent="1" source="g55L8w_lkAx7v0pYMvu_-74" target="g55L8w_lkAx7v0pYMvu_-80">
          <mxGeometry width="50" height="50" relative="1" as="geometry">
            <mxPoint x="380" y="250" as="sourcePoint" />
            <mxPoint x="430" y="200" as="targetPoint" />
          </mxGeometry>
        </mxCell>
        <mxCell id="g55L8w_lkAx7v0pYMvu_-104" value="" style="endArrow=none;html=1;rounded=0;entryX=1;entryY=1;entryDx=0;entryDy=0;exitX=0.25;exitY=0;exitDx=0;exitDy=0;" edge="1" parent="1" source="g55L8w_lkAx7v0pYMvu_-74" target="g55L8w_lkAx7v0pYMvu_-83">
          <mxGeometry width="50" height="50" relative="1" as="geometry">
            <mxPoint x="380" y="250" as="sourcePoint" />
            <mxPoint x="430" y="200" as="targetPoint" />
          </mxGeometry>
        </mxCell>
        <mxCell id="g55L8w_lkAx7v0pYMvu_-105" value="" style="endArrow=none;html=1;rounded=0;entryX=0.5;entryY=1;entryDx=0;entryDy=0;exitX=0.15;exitY=-0.033;exitDx=0;exitDy=0;exitPerimeter=0;" edge="1" parent="1" source="g55L8w_lkAx7v0pYMvu_-76" target="g55L8w_lkAx7v0pYMvu_-102">
          <mxGeometry width="50" height="50" relative="1" as="geometry">
            <mxPoint x="380" y="250" as="sourcePoint" />
            <mxPoint x="430" y="200" as="targetPoint" />
          </mxGeometry>
        </mxCell>
        <mxCell id="g55L8w_lkAx7v0pYMvu_-106" value="" style="endArrow=none;html=1;rounded=0;entryX=0;entryY=1;entryDx=0;entryDy=0;exitX=0.9;exitY=-0.033;exitDx=0;exitDy=0;exitPerimeter=0;" edge="1" parent="1" source="g55L8w_lkAx7v0pYMvu_-76" target="g55L8w_lkAx7v0pYMvu_-97">
          <mxGeometry width="50" height="50" relative="1" as="geometry">
            <mxPoint x="380" y="250" as="sourcePoint" />
            <mxPoint x="430" y="200" as="targetPoint" />
          </mxGeometry>
        </mxCell>
        <mxCell id="g55L8w_lkAx7v0pYMvu_-107" value="" style="endArrow=none;html=1;rounded=0;entryX=1;entryY=0.5;entryDx=0;entryDy=0;exitX=0;exitY=0.5;exitDx=0;exitDy=0;" edge="1" parent="1" source="g55L8w_lkAx7v0pYMvu_-76" target="g55L8w_lkAx7v0pYMvu_-100">
          <mxGeometry width="50" height="50" relative="1" as="geometry">
            <mxPoint x="380" y="250" as="sourcePoint" />
            <mxPoint x="430" y="200" as="targetPoint" />
          </mxGeometry>
        </mxCell>
        <mxCell id="g55L8w_lkAx7v0pYMvu_-108" value="" style="endArrow=none;html=1;rounded=0;entryX=0.5;entryY=0;entryDx=0;entryDy=0;" edge="1" parent="1" target="g55L8w_lkAx7v0pYMvu_-99">
          <mxGeometry width="50" height="50" relative="1" as="geometry">
            <mxPoint x="640" y="400" as="sourcePoint" />
            <mxPoint x="430" y="200" as="targetPoint" />
          </mxGeometry>
        </mxCell>
        <mxCell id="g55L8w_lkAx7v0pYMvu_-109" value="" style="endArrow=none;html=1;rounded=0;exitX=0.5;exitY=0;exitDx=0;exitDy=0;entryX=1;entryY=1;entryDx=0;entryDy=0;" edge="1" parent="1" source="g55L8w_lkAx7v0pYMvu_-98" target="g55L8w_lkAx7v0pYMvu_-76">
          <mxGeometry width="50" height="50" relative="1" as="geometry">
            <mxPoint x="380" y="250" as="sourcePoint" />
            <mxPoint x="430" y="200" as="targetPoint" />
          </mxGeometry>
        </mxCell>
        <mxCell id="g55L8w_lkAx7v0pYMvu_-111" value="" style="endArrow=none;html=1;rounded=0;entryX=0.5;entryY=1;entryDx=0;entryDy=0;exitX=0.5;exitY=0;exitDx=0;exitDy=0;" edge="1" parent="1" source="g55L8w_lkAx7v0pYMvu_-75" target="g55L8w_lkAx7v0pYMvu_-96">
          <mxGeometry width="50" height="50" relative="1" as="geometry">
            <mxPoint x="380" y="250" as="sourcePoint" />
            <mxPoint x="430" y="200" as="targetPoint" />
          </mxGeometry>
        </mxCell>
        <mxCell id="g55L8w_lkAx7v0pYMvu_-112" value="" style="endArrow=none;html=1;rounded=0;entryX=0.05;entryY=0.75;entryDx=0;entryDy=0;entryPerimeter=0;exitX=1.017;exitY=0.4;exitDx=0;exitDy=0;exitPerimeter=0;" edge="1" parent="1" source="g55L8w_lkAx7v0pYMvu_-75" target="g55L8w_lkAx7v0pYMvu_-95">
          <mxGeometry width="50" height="50" relative="1" as="geometry">
            <mxPoint x="380" y="250" as="sourcePoint" />
            <mxPoint x="430" y="200" as="targetPoint" />
          </mxGeometry>
        </mxCell>
        <mxCell id="g55L8w_lkAx7v0pYMvu_-113" value="" style="endArrow=none;html=1;rounded=0;entryX=0.05;entryY=0.8;entryDx=0;entryDy=0;entryPerimeter=0;exitX=1;exitY=1;exitDx=0;exitDy=0;" edge="1" parent="1" source="g55L8w_lkAx7v0pYMvu_-75" target="g55L8w_lkAx7v0pYMvu_-94">
          <mxGeometry width="50" height="50" relative="1" as="geometry">
            <mxPoint x="380" y="250" as="sourcePoint" />
            <mxPoint x="430" y="200" as="targetPoint" />
          </mxGeometry>
        </mxCell>
        <mxCell id="g55L8w_lkAx7v0pYMvu_-114" value="nombre" style="ellipse;whiteSpace=wrap;html=1;align=center;" vertex="1" parent="1">
          <mxGeometry x="10" y="440" width="100" height="40" as="geometry" />
        </mxCell>
        <mxCell id="g55L8w_lkAx7v0pYMvu_-115" value="id_usuarios" style="ellipse;whiteSpace=wrap;html=1;align=center;fontStyle=4;" vertex="1" parent="1">
          <mxGeometry x="210" y="440" width="100" height="40" as="geometry" />
        </mxCell>
        <mxCell id="g55L8w_lkAx7v0pYMvu_-116" value="telefono" style="ellipse;whiteSpace=wrap;html=1;align=center;" vertex="1" parent="1">
          <mxGeometry x="240" y="510" width="100" height="40" as="geometry" />
        </mxCell>
        <mxCell id="g55L8w_lkAx7v0pYMvu_-117" value="rol" style="ellipse;whiteSpace=wrap;html=1;align=center;" vertex="1" parent="1">
          <mxGeometry x="200" y="585" width="100" height="40" as="geometry" />
        </mxCell>
        <mxCell id="g55L8w_lkAx7v0pYMvu_-118" value="email" style="ellipse;whiteSpace=wrap;html=1;align=center;" vertex="1" parent="1">
          <mxGeometry x="60" y="600" width="100" height="40" as="geometry" />
        </mxCell>
        <mxCell id="g55L8w_lkAx7v0pYMvu_-119" value="direccion" style="ellipse;whiteSpace=wrap;html=1;align=center;" vertex="1" parent="1">
          <mxGeometry x="90" y="390" width="100" height="40" as="geometry" />
        </mxCell>
        <mxCell id="g55L8w_lkAx7v0pYMvu_-120" value="" style="endArrow=none;html=1;rounded=0;entryX=0;entryY=0.5;entryDx=0;entryDy=0;exitX=1;exitY=0.25;exitDx=0;exitDy=0;" edge="1" parent="1" source="g55L8w_lkAx7v0pYMvu_-77" target="g55L8w_lkAx7v0pYMvu_-116">
          <mxGeometry width="50" height="50" relative="1" as="geometry">
            <mxPoint x="380" y="550" as="sourcePoint" />
            <mxPoint x="430" y="500" as="targetPoint" />
          </mxGeometry>
        </mxCell>
        <mxCell id="g55L8w_lkAx7v0pYMvu_-122" value="" style="endArrow=none;html=1;rounded=0;entryX=0.4;entryY=1;entryDx=0;entryDy=0;entryPerimeter=0;exitX=0.425;exitY=-0.033;exitDx=0;exitDy=0;exitPerimeter=0;" edge="1" parent="1" source="g55L8w_lkAx7v0pYMvu_-77" target="g55L8w_lkAx7v0pYMvu_-119">
          <mxGeometry width="50" height="50" relative="1" as="geometry">
            <mxPoint x="380" y="550" as="sourcePoint" />
            <mxPoint x="430" y="500" as="targetPoint" />
          </mxGeometry>
        </mxCell>
        <mxCell id="g55L8w_lkAx7v0pYMvu_-123" value="" style="endArrow=none;html=1;rounded=0;entryX=0.65;entryY=1.125;entryDx=0;entryDy=0;entryPerimeter=0;exitX=0;exitY=0;exitDx=0;exitDy=0;" edge="1" parent="1" source="g55L8w_lkAx7v0pYMvu_-77" target="g55L8w_lkAx7v0pYMvu_-114">
          <mxGeometry width="50" height="50" relative="1" as="geometry">
            <mxPoint x="380" y="550" as="sourcePoint" />
            <mxPoint x="430" y="500" as="targetPoint" />
          </mxGeometry>
        </mxCell>
        <mxCell id="g55L8w_lkAx7v0pYMvu_-124" value="" style="endArrow=none;html=1;rounded=0;entryX=1;entryY=1;entryDx=0;entryDy=0;exitX=0;exitY=0;exitDx=0;exitDy=0;" edge="1" parent="1" source="g55L8w_lkAx7v0pYMvu_-117" target="g55L8w_lkAx7v0pYMvu_-77">
          <mxGeometry width="50" height="50" relative="1" as="geometry">
            <mxPoint x="380" y="550" as="sourcePoint" />
            <mxPoint x="430" y="500" as="targetPoint" />
          </mxGeometry>
        </mxCell>
        <mxCell id="g55L8w_lkAx7v0pYMvu_-125" value="" style="endArrow=none;html=1;rounded=0;entryX=0.25;entryY=1;entryDx=0;entryDy=0;exitX=0.5;exitY=0;exitDx=0;exitDy=0;" edge="1" parent="1" source="g55L8w_lkAx7v0pYMvu_-118" target="g55L8w_lkAx7v0pYMvu_-77">
          <mxGeometry width="50" height="50" relative="1" as="geometry">
            <mxPoint x="380" y="550" as="sourcePoint" />
            <mxPoint x="430" y="500" as="targetPoint" />
          </mxGeometry>
        </mxCell>
        <mxCell id="g55L8w_lkAx7v0pYMvu_-126" value="id_roles" style="ellipse;whiteSpace=wrap;html=1;align=center;fontStyle=4;" vertex="1" parent="1">
          <mxGeometry x="640" y="550" width="100" height="40" as="geometry" />
        </mxCell>
        <mxCell id="g55L8w_lkAx7v0pYMvu_-127" value="nombre_del_rol" style="ellipse;whiteSpace=wrap;html=1;align=center;" vertex="1" parent="1">
          <mxGeometry x="640" y="620" width="100" height="40" as="geometry" />
        </mxCell>
        <mxCell id="g55L8w_lkAx7v0pYMvu_-128" value="" style="endArrow=none;html=1;rounded=0;entryX=0;entryY=0.5;entryDx=0;entryDy=0;" edge="1" parent="1" target="g55L8w_lkAx7v0pYMvu_-126">
          <mxGeometry width="50" height="50" relative="1" as="geometry">
            <mxPoint x="600" y="570" as="sourcePoint" />
            <mxPoint x="430" y="500" as="targetPoint" />
          </mxGeometry>
        </mxCell>
        <mxCell id="g55L8w_lkAx7v0pYMvu_-129" value="" style="endArrow=none;html=1;rounded=0;entryX=0;entryY=0.5;entryDx=0;entryDy=0;exitX=1;exitY=1;exitDx=0;exitDy=0;" edge="1" parent="1" source="g55L8w_lkAx7v0pYMvu_-78" target="g55L8w_lkAx7v0pYMvu_-127">
          <mxGeometry width="50" height="50" relative="1" as="geometry">
            <mxPoint x="380" y="550" as="sourcePoint" />
            <mxPoint x="430" y="500" as="targetPoint" />
          </mxGeometry>
        </mxCell>
        <mxCell id="g55L8w_lkAx7v0pYMvu_-130" value="pertenece" style="shape=rhombus;perimeter=rhombusPerimeter;whiteSpace=wrap;html=1;align=center;fillColor=#eeeeee;strokeColor=#36393d;" vertex="1" parent="1">
          <mxGeometry x="340" y="210" width="120" height="60" as="geometry" />
        </mxCell>
        <mxCell id="g55L8w_lkAx7v0pYMvu_-131" value="" style="endArrow=none;html=1;rounded=0;exitX=1;exitY=0.75;exitDx=0;exitDy=0;entryX=0;entryY=0.5;entryDx=0;entryDy=0;" edge="1" parent="1" source="g55L8w_lkAx7v0pYMvu_-74" target="g55L8w_lkAx7v0pYMvu_-130">
          <mxGeometry relative="1" as="geometry">
            <mxPoint x="320" y="220" as="sourcePoint" />
            <mxPoint x="480" y="220" as="targetPoint" />
          </mxGeometry>
        </mxCell>
        <mxCell id="g55L8w_lkAx7v0pYMvu_-135" value="" style="endArrow=none;html=1;rounded=0;exitX=1;exitY=0.5;exitDx=0;exitDy=0;entryX=0.5;entryY=1;entryDx=0;entryDy=0;" edge="1" parent="1" source="g55L8w_lkAx7v0pYMvu_-130" target="g55L8w_lkAx7v0pYMvu_-75">
          <mxGeometry relative="1" as="geometry">
            <mxPoint x="460" y="240" as="sourcePoint" />
            <mxPoint x="460" y="190" as="targetPoint" />
          </mxGeometry>
        </mxCell>
        <mxCell id="g55L8w_lkAx7v0pYMvu_-136" value="N" style="text;html=1;strokeColor=none;fillColor=none;align=center;verticalAlign=middle;whiteSpace=wrap;rounded=0;" vertex="1" parent="1">
          <mxGeometry x="160" y="150" width="50" height="20" as="geometry" />
        </mxCell>
        <mxCell id="g55L8w_lkAx7v0pYMvu_-137" value="1" style="text;html=1;strokeColor=none;fillColor=none;align=center;verticalAlign=middle;whiteSpace=wrap;rounded=0;" vertex="1" parent="1">
          <mxGeometry x="450" y="180" width="40" height="20" as="geometry" />
        </mxCell>
        <mxCell id="g55L8w_lkAx7v0pYMvu_-138" value="tiene" style="shape=rhombus;perimeter=rhombusPerimeter;whiteSpace=wrap;html=1;align=center;fillColor=#eeeeee;strokeColor=#36393d;" vertex="1" parent="1">
          <mxGeometry x="200" y="310" width="120" height="60" as="geometry" />
        </mxCell>
        <mxCell id="g55L8w_lkAx7v0pYMvu_-139" value="" style="endArrow=none;html=1;rounded=0;exitX=0.833;exitY=1.033;exitDx=0;exitDy=0;exitPerimeter=0;entryX=0.5;entryY=0;entryDx=0;entryDy=0;" edge="1" parent="1" source="g55L8w_lkAx7v0pYMvu_-74" target="g55L8w_lkAx7v0pYMvu_-138">
          <mxGeometry relative="1" as="geometry">
            <mxPoint x="320" y="370" as="sourcePoint" />
            <mxPoint x="480" y="370" as="targetPoint" />
          </mxGeometry>
        </mxCell>
        <mxCell id="g55L8w_lkAx7v0pYMvu_-141" value="" style="endArrow=none;html=1;rounded=0;exitX=0.5;exitY=1;exitDx=0;exitDy=0;entryX=0.583;entryY=0;entryDx=0;entryDy=0;entryPerimeter=0;" edge="1" parent="1" source="g55L8w_lkAx7v0pYMvu_-138" target="g55L8w_lkAx7v0pYMvu_-77">
          <mxGeometry relative="1" as="geometry">
            <mxPoint x="320" y="370" as="sourcePoint" />
            <mxPoint x="480" y="370" as="targetPoint" />
          </mxGeometry>
        </mxCell>
        <mxCell id="g55L8w_lkAx7v0pYMvu_-146" value="1" style="text;html=1;strokeColor=none;fillColor=none;align=center;verticalAlign=middle;whiteSpace=wrap;rounded=0;" vertex="1" parent="1">
          <mxGeometry x="150" y="180" width="40" height="20" as="geometry" />
        </mxCell>
        <mxCell id="g55L8w_lkAx7v0pYMvu_-147" value="N" style="text;html=1;strokeColor=none;fillColor=none;align=center;verticalAlign=middle;whiteSpace=wrap;rounded=0;" vertex="1" parent="1">
          <mxGeometry x="130" y="490" width="40" height="20" as="geometry" />
        </mxCell>
        <mxCell id="g55L8w_lkAx7v0pYMvu_-148" value="Es asignado" style="shape=rhombus;perimeter=rhombusPerimeter;whiteSpace=wrap;html=1;align=center;fillColor=#eeeeee;strokeColor=#36393d;" vertex="1" parent="1">
          <mxGeometry x="354" y="460" width="120" height="60" as="geometry" />
        </mxCell>
        <mxCell id="g55L8w_lkAx7v0pYMvu_-149" value="" style="endArrow=none;html=1;rounded=0;exitX=0.992;exitY=0.15;exitDx=0;exitDy=0;exitPerimeter=0;entryX=0;entryY=0.5;entryDx=0;entryDy=0;" edge="1" parent="1" source="g55L8w_lkAx7v0pYMvu_-77" target="g55L8w_lkAx7v0pYMvu_-148">
          <mxGeometry relative="1" as="geometry">
            <mxPoint x="320" y="370" as="sourcePoint" />
            <mxPoint x="480" y="370" as="targetPoint" />
          </mxGeometry>
        </mxCell>
        <mxCell id="g55L8w_lkAx7v0pYMvu_-150" value="" style="endArrow=none;html=1;rounded=0;entryX=1;entryY=0.5;entryDx=0;entryDy=0;exitX=0;exitY=0;exitDx=0;exitDy=0;" edge="1" parent="1" source="g55L8w_lkAx7v0pYMvu_-78" target="g55L8w_lkAx7v0pYMvu_-148">
          <mxGeometry relative="1" as="geometry">
            <mxPoint x="480" y="550" as="sourcePoint" />
            <mxPoint x="480" y="370" as="targetPoint" />
          </mxGeometry>
        </mxCell>
        <mxCell id="g55L8w_lkAx7v0pYMvu_-153" value="N" style="text;html=1;strokeColor=none;fillColor=none;align=center;verticalAlign=middle;whiteSpace=wrap;rounded=0;" vertex="1" parent="1">
          <mxGeometry x="470" y="540" width="50" height="20" as="geometry" />
        </mxCell>
        <mxCell id="g55L8w_lkAx7v0pYMvu_-155" value="" style="endArrow=none;html=1;rounded=0;exitX=1;exitY=0;exitDx=0;exitDy=0;entryX=0.39;entryY=1.05;entryDx=0;entryDy=0;entryPerimeter=0;" edge="1" parent="1" source="g55L8w_lkAx7v0pYMvu_-77" target="g55L8w_lkAx7v0pYMvu_-115">
          <mxGeometry width="50" height="50" relative="1" as="geometry">
            <mxPoint x="380" y="400" as="sourcePoint" />
            <mxPoint x="430" y="350" as="targetPoint" />
          </mxGeometry>
        </mxCell>
        <mxCell id="g55L8w_lkAx7v0pYMvu_-156" value="1" style="text;html=1;strokeColor=none;fillColor=none;align=center;verticalAlign=middle;whiteSpace=wrap;rounded=0;" vertex="1" parent="1">
          <mxGeometry x="210" y="500" width="50" height="20" as="geometry" />
        </mxCell>
        <mxCell id="g55L8w_lkAx7v0pYMvu_-157" value="suministra" style="shape=rhombus;perimeter=rhombusPerimeter;whiteSpace=wrap;html=1;align=center;fillColor=#eeeeee;strokeColor=#36393d;" vertex="1" parent="1">
          <mxGeometry x="420" y="270" width="120" height="60" as="geometry" />
        </mxCell>
        <mxCell id="g55L8w_lkAx7v0pYMvu_-158" value="" style="endArrow=none;html=1;rounded=0;entryX=0;entryY=0;entryDx=0;entryDy=0;exitX=1;exitY=0.5;exitDx=0;exitDy=0;" edge="1" parent="1" source="g55L8w_lkAx7v0pYMvu_-157" target="g55L8w_lkAx7v0pYMvu_-76">
          <mxGeometry relative="1" as="geometry">
            <mxPoint x="320" y="300" as="sourcePoint" />
            <mxPoint x="480" y="300" as="targetPoint" />
          </mxGeometry>
        </mxCell>
        <mxCell id="g55L8w_lkAx7v0pYMvu_-159" value="" style="endArrow=none;html=1;rounded=0;" edge="1" parent="1">
          <mxGeometry relative="1" as="geometry">
            <mxPoint x="70" y="300" as="sourcePoint" />
            <mxPoint x="420" y="300" as="targetPoint" />
          </mxGeometry>
        </mxCell>
        <mxCell id="g55L8w_lkAx7v0pYMvu_-160" value="" style="endArrow=none;html=1;rounded=0;entryX=0.5;entryY=1;entryDx=0;entryDy=0;" edge="1" parent="1" target="g55L8w_lkAx7v0pYMvu_-74">
          <mxGeometry relative="1" as="geometry">
            <mxPoint x="70" y="300" as="sourcePoint" />
            <mxPoint x="480" y="300" as="targetPoint" />
          </mxGeometry>
        </mxCell>
        <mxCell id="g55L8w_lkAx7v0pYMvu_-165" value="1" style="text;html=1;strokeColor=none;fillColor=none;align=center;verticalAlign=middle;whiteSpace=wrap;rounded=0;" vertex="1" parent="1">
          <mxGeometry x="550" y="330" width="50" height="20" as="geometry" />
        </mxCell>
        <mxCell id="g55L8w_lkAx7v0pYMvu_-166" value="N" style="text;html=1;strokeColor=none;fillColor=none;align=center;verticalAlign=middle;whiteSpace=wrap;rounded=0;" vertex="1" parent="1">
          <mxGeometry x="100" y="185" width="40" height="10" as="geometry" />
        </mxCell>
      </root>
    </mxGraphModel>
  </diagram>
</mxfile>
